<svg id="Ebene_1" data-name="Ebene 1" xmlns="http://www.w3.org/2000/svg" viewBox="0 0 56.69 56.69"><defs><style>.cls-1{fill:#fdcf04;}.cls-2{fill:#eb5c2b;}</style></defs><title>Zeichenfläche 1</title><polygon class="cls-1" points="10.07 34.78 8.25 27.64 12.76 20.21 17.74 27.63 21.25 18.25 24.57 27.64 27.47 21.61 31.15 28.9 34.53 20.14 37.36 28.11 41.06 21.59 44.61 27.16 43.95 35.48 30.89 45.2 19.8 44.51 10.07 34.78"/><path class="cls-2" d="M28.35.45h0a22,22,0,0,0-19,32.93h0l19,22.87,19-22.87h0A22,22,0,0,0,28.35.45Zm.33,39.28A17.44,17.44,0,1,1,45.79,22.62,17.44,17.44,0,0,1,28.68,39.73Z"/></svg>