<svg width="56.69" height="56.69" xmlns="http://www.w3.org/2000/svg" xmlns:svg="http://www.w3.org/2000/svg">
 <defs>
  <style>.cls-1{fill:#fdcf04;}.cls-2{fill:#eb5c2b;}</style>
 </defs>
 <title>LinkSmart SensorThings Grafana Plugin</title>
 <g>
  <title>Layer 1</title>
  <polygon class="cls-1" points="11.1700035110116,34.779998779296875 9.350003816187382,27.639999389648438 13.860004045069218,20.209999084472656 18.840003587305546,27.6299991607666 22.35000381618738,18.25 25.6700035110116,27.639999389648438 28.570003129541874,21.610000610351562 32.25000152736902,28.899999618530273 35.62998352199793,20.139999389648438 38.459985353052616,28.110000610351562 42.15998611599207,21.59000015258789 45.709985353052616,27.15999984741211 45.04998550564051,35.47999954223633 31.99000320583582,45.20000076293945 20.90000305324793,44.5099983215332 11.1700035110116,34.779998779296875 " id="svg_1" fill="black"/>
  <path class="cls-2" d="m28.35,0.45l0,0a22,22 0 0 0 -19,32.93l0,0l19,22.87l19,-22.87l0,0a22,22 0 0 0 -19,-32.93zm0.33,39.28a17.44,17.44 0 1 1 17.11,-17.11a17.44,17.44 0 0 1 -17.11,17.11z" id="svg_2"/>
 </g>
</svg>