<?xml version="1.0" encoding="utf-8"?>
<!-- Generator: Adobe Illustrator 22.0.1, SVG Export Plug-In . SVG Version: 6.00 Build 0)  -->
<svg version="1.1" id="Ebene_1" xmlns="http://www.w3.org/2000/svg" xmlns:xlink="http://www.w3.org/1999/xlink" x="0px" y="0px"
	 viewBox="0 0 135.5 45.1" style="enable-background:new 0 0 135.5 45.1;" xml:space="preserve">
<style type="text/css">
	.st0{fill:#EDEDED;}
	.st1{fill:#88BCE7;}
	.st2{fill:#F6F6F6;}
	.st3{fill:#2581C4;}
	.st4{fill:#9D9D9C;}
	.st5{fill:#EDEDED;stroke:#EDEDED;stroke-miterlimit:10;}
</style>
<path class="st0" d="M0.8,6.2c0,0,0-0.1,0-0.1c0-0.2,0.1-0.9,2.8-1.8c3.2-1,4.8-1.6,4.8-1.6l3-1h4.9l9.8,3.4c0,0,2.2,0.9,2.2,1.7
	s0,12.3,0,12.3v13.2L26,35.1l-7.5,3.5l-1,0.5c0,0-1,0.7-2.6,0.1c-1.6-0.6-4.5-1.8-4.5-1.8L0.8,26.4V6.2z"/>
<g>
	<path class="st1" d="M15.8,18.6c0,0.6-0.5,0.9-1,0.7l-13-5.1c-0.6-0.2-1-0.9-1-1.5V6.3c0-0.6,0.5-0.9,1-0.7l13,5.1
		c0.6,0.2,1,0.9,1,1.5V18.6z"/>
</g>
<polygon class="st2" points="14.5,17.9 8.5,15.7 8.5,14.2 14.5,16.5 "/>
<g>
	<path class="st1" d="M15.8,38.4c0,0.6-0.5,0.9-1,0.7L1.8,34c-0.6-0.2-1-0.9-1-1.5V16.2c0-0.6,0.5-0.9,1-0.7l13,5.1
		c0.6,0.2,1,0.9,1,1.5V38.4z"/>
</g>
<g>
	<path class="st3" d="M28.3,32.9c0,0.6-0.4,1.3-1,1.6L17.7,39c-0.5,0.3-1,0-1-0.6V12.1c0-0.6,0.5-1.3,1-1.5l9.6-4.2
		c0.6-0.2,1,0.1,1,0.7V32.9z"/>
</g>
<g>
	<path class="st4" d="M26,5.9c0.5-0.2,0.5-0.6,0-0.8l-11-3.8c-0.5-0.2-1.4-0.2-2,0L3.3,4.4c-0.5,0.2-0.6,0.5,0,0.7l12.1,4.7
		c0.5,0.2,1.4,0.2,1.9-0.1L26,5.9z"/>
</g>
<polygon class="st2" points="14.5,23.4 8.5,21.1 8.5,19.7 14.5,21.9 "/>
<g>
	<path class="st5" d="M34.6,8.5h13.2v3.4h-8.5v5.3h8v3.4h-8v9.5h-4.8V8.5z"/>
	<path class="st5" d="M52.7,8.5h4.7c1.7,0,3,0,4.1,0.1c1.1,0.1,2.1,0.3,3,0.7c0.9,0.4,1.7,1,2.2,1.8c0.5,0.8,0.8,1.9,0.8,3.3
		c0,1.3-0.4,2.4-1.2,3.3c-0.8,0.9-1.9,1.5-3.3,1.7v0.1c0.5,0,1,0.3,1.3,0.7c0.4,0.4,0.7,0.9,1,1.6l3.5,8.5H64l-2.6-6.8
		c-0.3-0.8-0.7-1.4-1.1-1.8s-1-0.5-1.9-0.5H57v9h-4.3V8.5z M57,17.8h1.4c0.6,0,1.2,0,1.7-0.1s1-0.2,1.4-0.4s0.8-0.5,1.1-0.9
		c0.3-0.4,0.4-0.9,0.4-1.6c0-0.6-0.1-1.1-0.4-1.5c-0.3-0.4-0.6-0.7-1-0.9c-0.4-0.2-0.9-0.3-1.4-0.4c-0.5-0.1-1.1-0.1-1.8-0.1H57
		V17.8z"/>
	<path class="st5" d="M75.3,11.2c1.8-2,4.5-3,7.8-3c1.7,0,3.2,0.3,4.5,0.8c1.3,0.5,2.4,1.3,3.3,2.3c0.9,1,1.6,2.2,2.1,3.5
		c0.5,1.4,0.7,2.9,0.7,4.5c0,1.7-0.2,3.2-0.7,4.5c-0.5,1.4-1.1,2.6-2,3.6c-0.9,1-2,1.8-3.3,2.3s-2.8,0.8-4.5,0.8c-3.4,0-6-1-7.8-3.1
		c-1.8-2-2.8-4.8-2.8-8.2C72.5,15.9,73.4,13.2,75.3,11.2z M77.4,22.2c0.2,0.9,0.6,1.8,1.1,2.5s1.1,1.3,1.9,1.8
		c0.8,0.4,1.7,0.7,2.8,0.7c1.1,0,2-0.2,2.8-0.7c0.8-0.4,1.4-1,1.9-1.8s0.8-1.6,1.1-2.5c0.2-0.9,0.3-1.9,0.3-2.9c0-1-0.1-1.9-0.4-2.9
		c-0.2-0.9-0.6-1.7-1.1-2.5c-0.5-0.7-1.1-1.3-1.9-1.7c-0.8-0.4-1.7-0.6-2.7-0.6c-1,0-1.9,0.2-2.7,0.6c-0.8,0.4-1.4,1-1.9,1.8
		c-0.5,0.7-0.9,1.6-1.1,2.5c-0.2,0.9-0.4,1.9-0.4,2.9C77,20.3,77.1,21.3,77.4,22.2z"/>
	<path class="st5" d="M112.3,12.5c-1.6-0.6-3.2-0.9-4.8-0.9c-0.5,0-0.9,0.1-1.3,0.2s-0.8,0.3-1.2,0.5c-0.4,0.2-0.7,0.5-0.9,0.9
		c-0.2,0.4-0.3,0.9-0.3,1.4c0,0.7,0.3,1.3,1,1.6c0.6,0.4,1.6,0.8,3,1.3c1,0.4,1.8,0.7,2.5,1c0.7,0.3,1.3,0.7,1.9,1.1
		c0.6,0.5,1.1,1.1,1.5,1.8c0.4,0.7,0.6,1.6,0.6,2.6c0,1.1-0.2,2.1-0.7,3c-0.5,0.8-1.1,1.5-1.9,2s-1.8,0.9-2.8,1.1s-2.2,0.4-3.5,0.4
		c-1.1,0-2-0.1-2.7-0.2c-0.7-0.1-1.7-0.3-2.9-0.5l-0.5-0.1l0.4-3.9c0.8,0.4,1.7,0.7,2.6,1c0.9,0.2,1.8,0.4,2.7,0.4
		c1,0,2-0.2,2.9-0.7c0.9-0.5,1.3-1.2,1.3-2.1c0-0.8-0.3-1.4-1-1.9c-0.7-0.4-1.7-0.9-3.2-1.4c-1-0.4-1.8-0.7-2.4-1
		c-0.7-0.3-1.3-0.7-1.9-1.1c-0.6-0.5-1.1-1-1.4-1.7c-0.4-0.7-0.5-1.5-0.5-2.5c0-1.2,0.2-2.2,0.7-3c0.5-0.8,1.1-1.5,1.9-2.1
		c0.8-0.5,1.7-0.9,2.6-1.2c1-0.2,2-0.4,3.1-0.4c2.1,0,4,0.3,5.7,0.8L112.3,12.5z"/>
	<path class="st5" d="M123.8,11.9h-6.2V8.5h16.7v3.4h-6.2v18.2h-4.3V11.9z"/>
</g>
<g>
	<path class="st0" d="M51.9,34.2h3.4c0.9,0,1.7,0.1,2.4,0.4c0.7,0.2,1.4,0.6,2,1c0.6,0.4,1,1,1.3,1.6c0.3,0.6,0.5,1.4,0.5,2.1
		c0,1.7-0.5,3.1-1.6,4c-1.1,0.9-2.6,1.4-4.5,1.4h-3.4V34.2z M53.6,43.3h1.7c1.4,0,2.5-0.3,3.3-1s1.1-1.6,1.1-3
		c0-0.6-0.1-1.1-0.3-1.6c-0.2-0.5-0.5-0.9-0.9-1.2c-0.4-0.3-0.8-0.6-1.3-0.8c-0.5-0.2-1.1-0.3-1.7-0.3h-1.9V43.3z"/>
	<path class="st0" d="M64.4,37.6c0.9-0.5,1.8-0.7,2.8-0.7c1.2,0,2,0.3,2.6,0.8c0.5,0.5,0.8,1.3,0.8,2.4v3.2c0,0.4,0,0.7,0,1
		c0,0.2,0,0.4,0,0.5h-1.5v-1h0c-0.2,0.3-0.6,0.6-1,0.8s-1,0.3-1.6,0.3c-0.9,0-1.7-0.2-2.3-0.6c-0.6-0.4-0.8-1-0.8-1.8
		c0-0.4,0.1-0.8,0.4-1.2c0.2-0.3,0.6-0.6,1-0.8c0.4-0.2,0.8-0.3,1.3-0.4c0.4-0.1,0.9-0.1,1.3-0.1c0.4,0,0.7,0,0.9,0s0.5,0,0.8,0
		c0-0.7-0.2-1.2-0.5-1.5C68.3,38.1,67.7,38,67,38c-0.4,0-0.9,0.1-1.3,0.2c-0.4,0.1-0.8,0.3-1.1,0.6L64.4,37.6z M69,41
		c-0.1,0-0.3,0-0.5,0c-0.2,0-0.4,0-0.5,0c-0.3,0-0.6,0-0.9,0c-0.3,0-0.6,0.1-0.9,0.2c-0.3,0.1-0.6,0.2-0.8,0.4
		c-0.2,0.2-0.3,0.5-0.3,0.8c0,0.4,0.2,0.7,0.5,0.9c0.3,0.2,0.7,0.3,1.1,0.3c0.7,0,1.3-0.2,1.7-0.6c0.4-0.4,0.6-0.9,0.6-1.4V41z"/>
	<path class="st0" d="M72.8,43.2c0.3,0.2,0.6,0.3,1,0.4c0.4,0.1,0.7,0.1,0.9,0.1c0.4,0,0.8-0.1,1.1-0.3c0.3-0.2,0.5-0.5,0.5-0.8
		c0-0.3-0.1-0.5-0.4-0.7s-0.6-0.4-1.1-0.6l-0.2-0.1c-0.6-0.3-1.1-0.6-1.5-0.9c-0.3-0.3-0.5-0.7-0.5-1.2c0-0.8,0.3-1.3,0.8-1.7
		c0.6-0.4,1.3-0.6,2.1-0.6c0.3,0,0.6,0,0.9,0.1s0.6,0.1,1,0.2l-0.1,1.2c-0.2-0.1-0.4-0.2-0.8-0.3S76,38,75.8,38
		c-0.4,0-0.8,0.1-1.1,0.2c-0.3,0.2-0.4,0.4-0.4,0.7c0,0.3,0.1,0.5,0.3,0.7c0.2,0.2,0.5,0.4,1,0.5c0.1,0,0.2,0.1,0.2,0.1
		c0.3,0.1,0.6,0.3,0.8,0.4c0.2,0.1,0.4,0.2,0.6,0.4c0.2,0.2,0.4,0.4,0.5,0.6c0.1,0.2,0.2,0.5,0.2,0.8c0,0.8-0.3,1.4-0.9,1.8
		c-0.6,0.4-1.3,0.6-2.1,0.6c-0.5,0-0.9,0-1.2-0.1c-0.4-0.1-0.7-0.2-1.1-0.3L72.8,43.2z"/>
	<path class="st0" d="M80.1,33.4h1.6v4.7h0c0.3-0.4,0.7-0.7,1.1-0.9c0.5-0.2,1-0.3,1.6-0.3c1.1,0,1.9,0.3,2.4,0.8s0.8,1.4,0.8,2.4
		v4.5H86v-4c0-0.9-0.1-1.6-0.4-2c-0.3-0.4-0.7-0.7-1.4-0.7c-0.8,0-1.5,0.3-1.9,0.8c-0.4,0.6-0.6,1.3-0.6,2.3v3.5h-1.6V33.4z"/>
	<path class="st0" d="M90.5,33.4H92v4.6h0c0.3-0.4,0.6-0.7,1.1-0.9c0.5-0.2,1-0.3,1.7-0.3c0.6,0,1.1,0.1,1.6,0.3s0.8,0.5,1.1,0.8
		c0.3,0.4,0.5,0.8,0.7,1.2s0.2,1,0.2,1.5c0,0.5-0.1,1.1-0.2,1.6c-0.1,0.5-0.4,0.9-0.7,1.3c-0.3,0.4-0.7,0.7-1.1,0.9
		c-0.5,0.2-1,0.3-1.6,0.3c-0.7,0-1.3-0.1-1.8-0.4c-0.5-0.2-0.9-0.5-1.1-0.9h0v1.1h-1.5V33.4z M96.7,39.7c-0.1-0.3-0.2-0.6-0.4-0.9
		c-0.2-0.3-0.4-0.5-0.7-0.6s-0.6-0.2-1-0.2c-0.4,0-0.8,0.1-1.1,0.2c-0.3,0.2-0.6,0.4-0.8,0.7s-0.4,0.6-0.5,0.9
		c-0.1,0.3-0.2,0.7-0.2,1.1c0,0.3,0,0.7,0.1,1c0.1,0.3,0.2,0.6,0.4,0.9c0.2,0.3,0.5,0.5,0.8,0.7c0.3,0.2,0.7,0.3,1.1,0.3
		c0.4,0,0.7-0.1,1-0.3c0.3-0.2,0.5-0.4,0.7-0.7s0.3-0.6,0.4-0.9c0.1-0.3,0.1-0.7,0.1-1C96.8,40.4,96.8,40.1,96.7,39.7z"/>
	<path class="st0" d="M100.5,39.2c0.2-0.5,0.5-0.9,0.9-1.3c0.4-0.4,0.8-0.6,1.4-0.8c0.5-0.2,1.1-0.3,1.7-0.3s1.2,0.1,1.7,0.3
		c0.5,0.2,1,0.5,1.4,0.8s0.7,0.8,0.9,1.3c0.2,0.5,0.3,1,0.3,1.6c0,0.5-0.1,1.1-0.3,1.5c-0.2,0.5-0.5,0.9-0.9,1.3
		c-0.4,0.4-0.8,0.7-1.4,0.9c-0.5,0.2-1.1,0.3-1.7,0.3s-1.2-0.1-1.7-0.3c-0.5-0.2-1-0.5-1.4-0.9s-0.7-0.8-0.9-1.3
		c-0.2-0.5-0.3-1-0.3-1.5C100.2,40.3,100.3,39.7,100.5,39.2z M102,41.9c0.1,0.3,0.3,0.6,0.5,0.9s0.5,0.5,0.8,0.7s0.7,0.2,1.2,0.2
		s0.8-0.1,1.2-0.2s0.6-0.4,0.8-0.7c0.2-0.3,0.4-0.6,0.5-0.9c0.1-0.3,0.2-0.7,0.2-1c0-0.4-0.1-0.7-0.2-1.1s-0.3-0.6-0.5-0.9
		c-0.2-0.3-0.5-0.5-0.8-0.6s-0.7-0.2-1.1-0.2c-0.4,0-0.8,0.1-1.1,0.2c-0.3,0.2-0.6,0.4-0.8,0.6c-0.2,0.3-0.4,0.6-0.5,0.9
		s-0.2,0.7-0.2,1.1C101.9,41.2,101.9,41.5,102,41.9z"/>
	<path class="st0" d="M111.5,37.6c0.9-0.5,1.8-0.7,2.8-0.7c1.2,0,2,0.3,2.6,0.8c0.5,0.5,0.8,1.3,0.8,2.4v3.2c0,0.4,0,0.7,0,1
		c0,0.2,0,0.4,0,0.5h-1.5v-1h0c-0.2,0.3-0.6,0.6-1,0.8s-1,0.3-1.6,0.3c-0.9,0-1.7-0.2-2.3-0.6c-0.6-0.4-0.8-1-0.8-1.8
		c0-0.4,0.1-0.8,0.4-1.2c0.2-0.3,0.6-0.6,1-0.8c0.4-0.2,0.8-0.3,1.3-0.4c0.4-0.1,0.9-0.1,1.3-0.1c0.4,0,0.7,0,0.9,0s0.5,0,0.8,0
		c0-0.7-0.2-1.2-0.5-1.5c-0.3-0.3-0.8-0.5-1.6-0.5c-0.4,0-0.9,0.1-1.3,0.2c-0.4,0.1-0.8,0.3-1.1,0.6L111.5,37.6z M116.1,41
		c-0.1,0-0.3,0-0.5,0c-0.2,0-0.4,0-0.5,0c-0.3,0-0.6,0-0.9,0c-0.3,0-0.6,0.1-0.9,0.2c-0.3,0.1-0.6,0.2-0.8,0.4
		c-0.2,0.2-0.3,0.5-0.3,0.8c0,0.4,0.2,0.7,0.5,0.9c0.3,0.2,0.7,0.3,1.1,0.3c0.7,0,1.3-0.2,1.7-0.6c0.4-0.4,0.6-0.9,0.6-1.4V41z"/>
	<path class="st0" d="M120.5,37h1.5v1.2h0c0.2-0.4,0.5-0.7,0.9-1c0.4-0.3,0.8-0.4,1.3-0.4c0.2,0,0.4,0,0.5,0c0.1,0,0.3,0,0.5,0.1h0
		v1.3c-0.2-0.1-0.5-0.1-0.9-0.1c-0.7,0-1.2,0.3-1.7,0.8c-0.4,0.6-0.6,1.3-0.6,2.3v3.5h-1.6V37z"/>
	<path class="st0" d="M133.2,43.6L133.2,43.6c-0.3,0.3-0.6,0.6-1.1,0.9c-0.5,0.2-1.1,0.4-1.8,0.4c-0.6,0-1.2-0.1-1.6-0.3
		c-0.5-0.2-0.8-0.5-1.1-0.9s-0.5-0.8-0.7-1.3c-0.1-0.5-0.2-1-0.2-1.6c0-0.5,0.1-1,0.2-1.5c0.2-0.5,0.4-0.9,0.7-1.2
		c0.3-0.4,0.7-0.6,1.1-0.8s1-0.3,1.6-0.3c0.7,0,1.3,0.1,1.7,0.3c0.5,0.2,0.8,0.5,1.1,0.9h0v-4.6h1.6v11.3h-1.5V43.6z M128.4,41.8
		c0.1,0.3,0.2,0.7,0.4,0.9s0.4,0.5,0.7,0.7c0.3,0.2,0.6,0.3,1,0.3c0.4,0,0.8-0.1,1.1-0.3c0.3-0.2,0.6-0.4,0.8-0.7s0.3-0.6,0.4-0.9
		s0.1-0.7,0.1-1c0-0.4-0.1-0.7-0.2-1.1c-0.1-0.3-0.3-0.6-0.5-0.9s-0.5-0.5-0.8-0.7c-0.3-0.2-0.7-0.2-1.1-0.2c-0.4,0-0.7,0.1-1,0.2
		c-0.3,0.1-0.5,0.4-0.7,0.6c-0.2,0.3-0.3,0.6-0.4,0.9c-0.1,0.3-0.1,0.7-0.1,1.1C128.3,41.1,128.3,41.5,128.4,41.8z"/>
</g>
</svg>
